<svg xmlns="http://www.w3.org/2000/svg" width="38" height="38" viewBox="0 0 38 38">
  <g id="Group_172945" data-name="Group 172945" transform="translate(0 -625)">
    <rect id="Rectangle_150513" data-name="Rectangle 150513" width="38" height="38" transform="translate(0 625)" fill="#1f2127" opacity="0"/>
    <g id="Group_172263" data-name="Group 172263" transform="translate(6.333 631.333)">
      <path id="icons8-linkedin-2" d="M9.648,27.852H4V10.908H9.648ZM6.825,8.648A2.825,2.825,0,1,1,9.648,5.824,2.825,2.825,0,0,1,6.825,8.648Zm23.157,19.2h-5.43V19.606c0-1.967-.037-4.5-2.823-4.5-2.827,0-3.263,2.142-3.263,4.354v8.388H13.038V10.9H18.25v2.317h.073a5.743,5.743,0,0,1,5.14-2.739c5.5,0,6.518,3.512,6.518,8.078Z" transform="translate(-3.999 -2.999)" fill="#383636"/>
    </g>
  </g>
</svg>
