<svg xmlns="http://www.w3.org/2000/svg" width="21.122" height="19.16" viewBox="0 0 21.122 19.16">
  <g id="ic-contact-chat" transform="translate(-1.25 -2.25)">
    <path id="Path_76" data-name="Path 76" d="M3.962,3h9.811a1.962,1.962,0,0,1,1.962,1.962v5.887a1.962,1.962,0,0,1-1.962,1.962H10.83L7.887,15.755,4.943,12.811H3.962A1.962,1.962,0,0,1,2,10.849V4.962A1.962,1.962,0,0,1,3.962,3Z" transform="translate(0 0)" fill="none" stroke="#3c3535" stroke-linecap="round" stroke-linejoin="round" stroke-width="1.5"/>
    <path id="Path_77" data-name="Path 77" d="M15.849,8h3.924a1.962,1.962,0,0,1,1.962,1.962v5.887a1.962,1.962,0,0,1-1.962,1.962H17.811l-1.962,2.943-2.943-2.943H9.962A1.962,1.962,0,0,1,8,15.849H8" transform="translate(-0.113 -0.094)" fill="none" stroke="#3c3535" stroke-linecap="round" stroke-linejoin="round" stroke-width="1.5"/>
  </g>
</svg>
