<svg xmlns="http://www.w3.org/2000/svg" width="38" height="38" viewBox="0 0 38 38">
  <g id="Group_172944" data-name="Group 172944" transform="translate(-50 -625)">
    <rect id="Rectangle_150515" data-name="Rectangle 150515" width="38" height="38" transform="translate(50 625)" fill="#1f2127" opacity="0"/>
    <g id="Group_172262" data-name="Group 172262" transform="translate(56.333 633.866)">
      <path id="icons8-twitter" d="M27.362,6.875a10.387,10.387,0,0,1-2.989.82,5.212,5.212,0,0,0,2.288-2.879,10.433,10.433,0,0,1-3.3,1.267,5.2,5.2,0,0,0-9,3.559,5.262,5.262,0,0,0,.134,1.186A14.772,14.772,0,0,1,3.764,5.387a5.212,5.212,0,0,0,1.61,6.948,5.193,5.193,0,0,1-2.361-.651v.066a5.2,5.2,0,0,0,4.18,5.1,5.206,5.206,0,0,1-1.372.182,5.3,5.3,0,0,1-.978-.092A5.21,5.21,0,0,0,9.7,20.555,10.5,10.5,0,0,1,2,22.708a14.731,14.731,0,0,0,7.98,2.337,14.7,14.7,0,0,0,14.8-14.8q0-.338-.015-.673a10.588,10.588,0,0,0,2.6-2.694Z" transform="translate(-2 -4.438)" fill="#383636"/>
    </g>
  </g>
</svg>
